<svg id="RateBar" xmlns="http://www.w3.org/2000/svg" width="385" height="25" viewBox="0 0 385 25">
  <g id="Ellipse_6" data-name="Ellipse 6" fill="#d80027" stroke="#707070" stroke-width="1">
    <circle cx="12.5" cy="12.5" r="12.5" stroke="none"/>
    <circle cx="12.5" cy="12.5" r="12" fill="none"/>
  </g>
  <g id="Ellipse_7" data-name="Ellipse 7" transform="translate(40)" fill="#d80027" stroke="#707070" stroke-width="1">
    <circle cx="12.5" cy="12.5" r="12.5" stroke="none"/>
    <circle cx="12.5" cy="12.5" r="12" fill="none"/>
  </g>
  <g id="Ellipse_8" data-name="Ellipse 8" transform="translate(80)" fill="#d80027" stroke="#707070" stroke-width="1">
    <circle cx="12.5" cy="12.5" r="12.5" stroke="none"/>
    <circle cx="12.5" cy="12.5" r="12" fill="none"/>
  </g>
  <g id="Ellipse_9" data-name="Ellipse 9" transform="translate(120)" fill="#d80027" stroke="#707070" stroke-width="1">
    <circle cx="12.5" cy="12.5" r="12.5" stroke="none"/>
    <circle cx="12.5" cy="12.5" r="12" fill="none"/>
  </g>
  <g id="Ellipse_10" data-name="Ellipse 10" transform="translate(160)" fill="#d80027" stroke="#707070" stroke-width="1">
    <circle cx="12.5" cy="12.5" r="12.5" stroke="none"/>
    <circle cx="12.5" cy="12.5" r="12" fill="none"/>
  </g>
  <g id="Ellipse_11" data-name="Ellipse 11" transform="translate(200)" fill="#d80027" stroke="#707070" stroke-width="1">
    <circle cx="12.5" cy="12.5" r="12.5" stroke="none"/>
    <circle cx="12.5" cy="12.5" r="12" fill="none"/>
  </g>
  <g id="Ellipse_12" data-name="Ellipse 12" transform="translate(240)" fill="#d80027" stroke="#707070" stroke-width="1">
    <circle cx="12.5" cy="12.5" r="12.5" stroke="none"/>
    <circle cx="12.5" cy="12.5" r="12" fill="none"/>
  </g>
  <g id="Ellipse_13" data-name="Ellipse 13" transform="translate(280)" fill="#d80027" stroke="#707070" stroke-width="1">
    <circle cx="12.5" cy="12.5" r="12.5" stroke="none"/>
    <circle cx="12.5" cy="12.5" r="12" fill="none"/>
  </g>
  <g id="Ellipse_14" data-name="Ellipse 14" transform="translate(320)" fill="#fff" stroke="#707070" stroke-width="1">
    <circle cx="12.5" cy="12.5" r="12.5" stroke="none"/>
    <circle cx="12.5" cy="12.5" r="12" fill="none"/>
  </g>
  <g id="Ellipse_15" data-name="Ellipse 15" transform="translate(360)" fill="#fff" stroke="#707070" stroke-width="1">
    <circle cx="12.5" cy="12.5" r="12.5" stroke="none"/>
    <circle cx="12.5" cy="12.5" r="12" fill="none"/>
  </g>
</svg>
